<?xml version="1.0" encoding="UTF-8" standalone="no"?>
<!-- Created with Inkscape (http://www.inkscape.org/) -->

<svg
   width="297.0mm"
   height="210.0mm"
   viewBox="0 0 297.0 210.0"
   version="1.1"
   id="SVGRoot"
   sodipodi:docname="桌面.svg"
   inkscape:version="1.2.2 (b0a8486, 2022-12-01)"
   xmlns:inkscape="http://www.inkscape.org/namespaces/inkscape"
   xmlns:sodipodi="http://sodipodi.sourceforge.net/DTD/sodipodi-0.dtd"
   xmlns:xlink="http://www.w3.org/1999/xlink"
   xmlns="http://www.w3.org/2000/svg"
   xmlns:svg="http://www.w3.org/2000/svg">
  <sodipodi:namedview
     id="namedview6079"
     pagecolor="#ffffff"
     bordercolor="#666666"
     borderopacity="0.25"
     inkscape:showpageshadow="2"
     inkscape:pageopacity="1.0"
     inkscape:pagecheckerboard="0"
     inkscape:deskcolor="#d1d1d1"
     inkscape:document-units="mm"
     showgrid="false"
     inkscape:zoom="3.529077"
     inkscape:cx="939.76413"
     inkscape:cy="723.13525"
     inkscape:window-width="1728"
     inkscape:window-height="1080"
     inkscape:window-x="0"
     inkscape:window-y="37"
     inkscape:window-maximized="0"
     inkscape:current-layer="layer1"
     inkscape:pageshadow="0" />
  <defs
     id="defs6074">
    <inkscape:perspective
       sodipodi:type="inkscape:persp3d"
       inkscape:vp_x="0 : 105 : 1"
       inkscape:vp_y="0 : 1000 : 0"
       inkscape:vp_z="297 : 105 : 1"
       inkscape:persp3d-origin="148.5 : 70 : 1"
       id="perspective8415" />
    <linearGradient
       inkscape:collect="always"
       id="linearGradient7743">
      <stop
         style="stop-color:#000000;stop-opacity:1;"
         offset="0"
         id="stop7739" />
      <stop
         style="stop-color:#000000;stop-opacity:0;"
         offset="1"
         id="stop7741" />
    </linearGradient>
    <radialGradient
       inkscape:collect="always"
       xlink:href="#linearGradient7743"
       id="radialGradient7747"
       cx="51.062073"
       cy="57.688446"
       fx="51.062073"
       fy="57.688446"
       r="35.862747"
       gradientTransform="matrix(1,0,0,1.3296884,-1.0409969,-19.390996)"
       gradientUnits="userSpaceOnUse" />
    <radialGradient
       inkscape:collect="always"
       xlink:href="#linearGradient7743"
       id="radialGradient7747-7"
       cx="51.062073"
       cy="57.688446"
       fx="51.062073"
       fy="57.688446"
       r="35.862747"
       gradientTransform="matrix(1,0,0,1.3296884,83.082793,-18.820495)"
       gradientUnits="userSpaceOnUse" />
    <radialGradient
       inkscape:collect="always"
       xlink:href="#linearGradient7743"
       id="radialGradient7747-7-5"
       cx="51.062073"
       cy="57.688446"
       fx="51.062073"
       fy="57.688446"
       r="35.862747"
       gradientTransform="matrix(1,0,0,1.3296884,172.6123,-18.376062)"
       gradientUnits="userSpaceOnUse" />
  </defs>
  <g
     inkscape:label="图层 1"
     inkscape:groupmode="layer"
     id="layer1">
    <rect
       style="opacity:0.101695;fill:#000000;stroke:url(#radialGradient7747);stroke-width:0.264583;stroke-opacity:1"
       id="rect7710"
       width="71.460915"
       height="95.107979"
       x="14.290617"
       y="9.7626724" />
    <rect
       style="display:inline;opacity:0.101695;fill:#000000;stroke:url(#radialGradient7747-7);stroke-width:0.264583;stroke-opacity:1"
       id="rect7710-8"
       width="71.460915"
       height="95.107979"
       x="98.414413"
       y="10.333171" />
    <rect
       style="display:inline;opacity:0.101695;fill:#000000;stroke:url(#radialGradient7747-7-5);stroke-width:0.264583;stroke-opacity:1"
       id="rect7710-8-1"
       width="71.460915"
       height="95.107979"
       x="187.94392"
       y="10.777604" />
    <rect
       style="opacity:0.101695;fill:#000000;stroke:#000000;stroke-width:0.261658;stroke-opacity:1"
       id="rect7749"
       width="69.38121"
       height="16.29331"
       x="15.444238"
       y="10.496787" />
    <rect
       style="opacity:0.101695;fill:#000000;stroke:#000000;stroke-width:0.192254;stroke-opacity:1"
       id="rect7749-0"
       width="69.450615"
       height="8.7873354"
       x="99.540489"
       y="95.767029" />
    <rect
       style="opacity:0.101695;fill:#000000;stroke:#000000;stroke-width:0.154456;stroke-opacity:1"
       id="rect7749-0-6"
       width="49.377838"
       height="7.9773808"
       x="118.98157"
       y="96.140282" />
    <rect
       style="opacity:0.101695;fill:#000000;stroke:#000000;stroke-width:0.264583;stroke-opacity:1"
       id="rect7751"
       width="58.042042"
       height="22.685871"
       x="20.592115"
       y="33.624424" />
    <rect
       style="opacity:0.18909091;fill:#000000;stroke:#000000;stroke-width:0.264583;stroke-opacity:1"
       id="rect7753"
       width="58.162712"
       height="2.0513821"
       x="20.634489"
       y="56.594009" />
    <rect
       style="opacity:0.298182;fill:#000000;stroke:#000000;stroke-width:0.264583;stroke-opacity:1"
       id="rect7753-7"
       width="58.051815"
       height="1.6417745"
       x="20.755159"
       y="58.947067" />
    <text
       xml:space="preserve"
       style="font-size:3.175px;opacity:0.298182;fill:#000000;stroke:#000000;stroke-width:0.264583;stroke-opacity:1"
       x="21.786577"
       y="37.773315"
       id="text7855"><tspan
         sodipodi:role="line"
         style="stroke-width:0.264583"
         x="21.786577"
         y="37.773315"
         id="tspan7859">&gt; 来自 Music</tspan></text>
    <text
       xml:space="preserve"
       style="font-style:italic;font-variant:normal;font-weight:normal;font-stretch:normal;font-size:2.82223px;font-family:sans-serif;-inkscape-font-specification:'sans-serif Italic';opacity:0.298182;fill:#000000;stroke:#000000;stroke-width:0.264583;stroke-opacity:1"
       x="22.009647"
       y="42.383446"
       id="text7923"><tspan
         sodipodi:role="line"
         id="tspan7921"
         style="stroke-width:0.264583"
         x="22.009647"
         y="42.383446">NeverGonnaGive......</tspan><tspan
         sodipodi:role="line"
         style="stroke-width:0.264583"
         x="22.009647"
         y="45.911232"
         id="tspan7925" /><tspan
         sodipodi:role="line"
         style="stroke-width:0.264583"
         x="22.009647"
         y="49.439022"
         id="tspan7927">————————/——</tspan></text>
    <text
       xml:space="preserve"
       style="font-style:italic;font-variant:normal;font-weight:normal;font-stretch:normal;font-size:2.27349px;font-family:sans-serif;-inkscape-font-specification:'sans-serif Italic';opacity:0.298182;fill:#000000;stroke:#000000;stroke-width:0.213138;stroke-opacity:1"
       x="118.02592"
       y="99.743385"
       id="text7923-9"
       transform="scale(1.0167731,0.9835036)"><tspan
         sodipodi:role="line"
         id="tspan7921-0"
         style="stroke-width:0.213138"
         x="118.02592"
         y="99.743385">NeverGonnaGIve......</tspan><tspan
         sodipodi:role="line"
         style="stroke-width:0.213138"
         x="118.02592"
         y="102.58525"
         id="tspan7927-2">————————/——</tspan></text>
    <rect
       style="opacity:0.298182;fill:#000000;stroke:#000000;stroke-width:0.264583;stroke-opacity:1"
       id="rect7989"
       width="11.748393"
       height="11.004824"
       x="62.608528"
       y="35.54261" />
    <rect
       style="opacity:0.298182;fill:#000000;stroke:#000000;stroke-width:0.161333;stroke-opacity:1"
       id="rect7989-2"
       width="6.8013897"
       height="7.0678711"
       x="161.0692"
       y="96.966095" />
    <rect
       style="opacity:1;fill:#ffffff;stroke:#000000;stroke-width:0.161;stroke-opacity:1;stroke-dasharray:0.161, 0.161;stroke-dashoffset:0.161;fill-opacity:1"
       id="rect7989-2-7"
       width="6.8013897"
       height="7.0678711"
       x="100.54398"
       y="96.950821" />
    <rect
       style="fill:#ffffff;fill-opacity:1;stroke:#000000;stroke-width:0.161;stroke-dasharray:0.161, 0.161;stroke-dashoffset:0.161;stroke-opacity:1"
       id="rect7989-2-7-9"
       width="6.8013897"
       height="7.0678711"
       x="109.24245"
       y="96.903725" />
    <rect
       style="opacity:0.298182;fill:#000000;stroke:#000000;stroke-width:0.264583;stroke-opacity:1"
       id="rect7991"
       width="3.3460612"
       height="3.4204183"
       x="62.534172"
       y="50.339634" />
    <rect
       style="opacity:0.298182;fill:#000000;stroke:#000000;stroke-width:0.264583;stroke-opacity:1"
       id="rect7991-4"
       width="3.3460612"
       height="3.4204183"
       x="155.99059"
       y="99.051018" />
    <rect
       style="opacity:0.298182;fill:#000000;stroke:#000000;stroke-width:0.264583;stroke-opacity:1"
       id="rect7991-4-8"
       width="3.3460612"
       height="3.4204183"
       x="151.2623"
       y="99.051018" />
    <rect
       style="opacity:0.298182;fill:#000000;stroke:#000000;stroke-width:0.264583;stroke-opacity:1"
       id="rect7991-4-3"
       width="3.3460612"
       height="3.4204183"
       x="146.94164"
       y="98.969498" />
    <rect
       style="opacity:0.298182;fill:#000000;stroke:#000000;stroke-width:0.264583;stroke-opacity:1"
       id="rect7991-5"
       width="3.3460612"
       height="3.4204183"
       x="67.032768"
       y="50.413994" />
    <rect
       style="opacity:0.298182;fill:#000000;stroke:#000000;stroke-width:0.264583;stroke-opacity:1"
       id="rect7991-2"
       width="3.3460612"
       height="3.4204183"
       x="71.345467"
       y="50.339634" />
    <text
       xml:space="preserve"
       style="font-style:italic;font-variant:normal;font-weight:normal;font-stretch:normal;font-size:2.82223px;font-family:sans-serif;-inkscape-font-specification:'sans-serif Italic';opacity:0.298182;fill:#000000;stroke:#000000;stroke-width:0.264583;stroke-opacity:1"
       x="22.976288"
       y="53.462627"
       id="text8029"><tspan
         sodipodi:role="line"
         id="tspan8027"
         style="stroke-width:0.264583"
         x="22.976288"
         y="53.462627">3:27/3:08</tspan></text>
    <text
       xml:space="preserve"
       style="font-style:italic;font-variant:normal;font-weight:normal;font-stretch:normal;font-size:2.11667px;font-family:sans-serif;-inkscape-font-specification:'sans-serif Italic';opacity:0.298182;fill:#000000;stroke:#000000;stroke-width:0.264583;stroke-opacity:1"
       x="20.522511"
       y="32.642689"
       id="text8033"><tspan
         sodipodi:role="line"
         id="tspan8031"
         style="font-size:2.11667px;stroke-width:0.264583"
         x="20.522511"
         y="32.642689"><tspan
           style="font-size:3.175px"
           id="tspan8037">▽</tspan><tspan
           style="font-style:normal;font-variant:normal;font-weight:normal;font-stretch:normal;font-size:2.82222px;font-family:'Big Caslon';-inkscape-font-specification:'Big Caslon'"
           id="tspan8035">更多2个通知</tspan></tspan></text>
    <path
       style="display:inline;fill:none;fill-rule:evenodd;stroke:#000000;stroke-width:0.264583px;stroke-linecap:butt;stroke-linejoin:miter;stroke-opacity:1"
       d="M 46.324361,96.515284 48.55507,94.135862"
       id="path8185"
       inkscape:connector-type="polyline"
       inkscape:connector-curvature="0" />
    <path
       style="fill:none;fill-rule:evenodd;stroke:#000000;stroke-width:0.264583px;stroke-linecap:butt;stroke-linejoin:miter;stroke-opacity:1"
       d="M 50.562705,96.36657 48.480712,94.135862"
       id="path8187"
       inkscape:connector-type="polyline"
       inkscape:connector-curvature="0" />
    <text
       xml:space="preserve"
       style="font-style:normal;font-variant:normal;font-weight:normal;font-stretch:normal;font-size:3.175px;font-family:'Big Caslon';-inkscape-font-specification:'Big Caslon';opacity:0.298182;fill:#000000;stroke:#000000;stroke-width:0.264583;stroke-opacity:1"
       x="38.219456"
       y="90.864159"
       id="text8299"><tspan
         sodipodi:role="line"
         id="tspan8297"
         style="stroke-width:0.264583"
         x="38.219456"
         y="90.864159">tap SEL to open</tspan></text>
    <text
       xml:space="preserve"
       style="font-style:normal;font-variant:normal;font-weight:normal;font-stretch:normal;font-size:9.87778px;font-family:'Big Caslon';-inkscape-font-specification:'Big Caslon';opacity:0.298182;fill:#000000;stroke:#000000;stroke-width:0.264583;stroke-opacity:1"
       x="18.440517"
       y="21.637863"
       id="text8303"><tspan
         sodipodi:role="line"
         id="tspan8301"
         style="font-style:normal;font-variant:normal;font-weight:600;font-stretch:normal;font-size:9.87778px;font-family:'American Typewriter';-inkscape-font-specification:'American Typewriter Semi-Bold';stroke-width:0.264583"
         x="18.440517"
         y="21.637863">12:25</tspan></text>
    <text
       xml:space="preserve"
       style="font-style:normal;font-variant:normal;font-weight:600;font-stretch:normal;font-size:4.23333px;font-family:'American Typewriter';-inkscape-font-specification:'American Typewriter Semi-Bold';opacity:0.298182;fill:#000000;stroke:#000000;stroke-width:0.264583;stroke-opacity:1"
       x="49.521709"
       y="17.920017"
       id="text8307"><tspan
         sodipodi:role="line"
         id="tspan8305"
         style="font-size:4.23333px;stroke-width:0.264583"
         x="49.521709"
         y="17.920017">MONDAY</tspan></text>
    <text
       xml:space="preserve"
       style="font-style:normal;font-variant:normal;font-weight:600;font-stretch:normal;font-size:4.23333px;font-family:'American Typewriter';-inkscape-font-specification:'American Typewriter Semi-Bold';opacity:0.298182;fill:#000000;stroke:#000000;stroke-width:0.264583;stroke-opacity:1"
       x="49.744778"
       y="23.273716"
       id="text8311"><tspan
         sodipodi:role="line"
         id="tspan8309"
         style="stroke-width:0.264583"
         x="49.744778"
         y="23.273716">2023.5.23</tspan></text>
    <rect
       style="opacity:0.298182;fill:#000000;stroke:#000000;stroke-width:0.264583"
       id="rect1292"
       width="24.456608"
       height="1.2228304"
       x="120.08195"
       y="102.1471" />
    <path
       sodipodi:type="star"
       style="opacity:0.298182;fill:#000000;stroke:#000000;stroke-width:0.264583"
       id="path1348"
       inkscape:flatsided="false"
       sodipodi:sides="64"
       sodipodi:cx="140.38728"
       sodipodi:cy="102.7584"
       sodipodi:r1="0.2445664"
       sodipodi:r2="0.72797889"
       sodipodi:arg1="-1.5707969"
       sodipodi:arg2="-1.6127513"
       inkscape:rounded="3.63"
       inkscape:randomized="0"
       d="m 140.38728,102.51383 c 1.74869,-0.15964 -1.78438,-0.56893 -0.0305,-0.48277 1.76571,0.0868 -1.71329,0.47134 0.0545,0.48395 1.75592,0.0125 -1.72002,-0.74109 0.0169,-0.48344 1.74871,0.2594 -1.75124,0.30114 0.007,0.48696 1.74623,0.18458 -1.63911,-0.90611 0.0642,-0.47945 1.71487,0.42955 -1.77232,0.12804 -0.041,0.48528 1.71973,0.35485 -1.5424,-1.06241 0.11092,-0.47084 1.6645,0.59557 -1.77634,-0.0463 -0.0883,0.47893 1.67668,0.5217 -1.43083,-1.20848 0.15654,-0.45771 1.59812,0.75585 -1.76325,-0.22018 -0.13484,0.46797 1.61747,0.68353 -1.30549,-1.3429 0.20065,-0.44016 1.51633,0.90885 -1.73318,-0.39195 -0.18006,0.4525 1.54268,0.83878 -1.16758,-1.4644 0.24282,-0.41837 1.41995,1.0531 -1.68641,-0.55995 -0.22355,0.43267 1.45304,0.98595 -1.01841,-1.57179 0.28267,-0.39256 1.30988,1.18721 -1.62341,-0.72255 -0.26488,0.40868 1.3494,1.12362 -0.85945,-1.66405 0.31978,-0.36297 1.18721,1.30989 -1.54477,-0.87819 -0.30366,0.38075 1.23276,1.25048 -0.69221,-1.74027 0.35381,-0.32987 1.05311,1.41994 -1.45125,-1.02538 -0.33952,0.34915 1.10426,1.36528 -0.5183,-1.79975 0.38445,-0.29361 0.90885,1.51633 -1.34376,-1.16268 -0.37211,0.31419 0.96512,1.46695 -0.3394,-1.84188 0.41138,-0.2545 0.75585,1.59811 -1.22333,-1.2888 -0.40112,0.2762 0.81669,1.55448 -0.15722,-1.86628 0.43434,-0.21296 0.59557,1.6645 -1.09111,-1.4025 -0.42625,0.23556 0.66039,1.62705 0.0265,-1.8727 0.45312,-0.16936 0.42955,1.71486 -0.94839,-1.5027 -0.44729,0.19264 0.49773,1.68394 0.20989,-1.86109 0.46754,-0.12413 0.2594,1.74871 -0.79653,-1.58842 -0.46402,0.14787 0.33028,1.72462 0.3913,-1.83156 0.47746,-0.0777 0.0867,1.76572 -0.63701,-1.65884 -0.47628,0.10168 0.15965,1.74869 0.56893,-1.78438 0.48277,-0.0305 -0.0867,1.76571 -0.47134,-1.7133 -0.48395,0.0545 -0.0125,1.75592 0.7411,-1.72002 0.48344,0.0169 -0.25939,1.7487 -0.30114,-1.75125 -0.48696,0.007 -0.18457,1.74624 0.90612,-1.6391 0.47945,0.0642 -0.42955,1.71486 -0.12803,-1.77233 -0.48528,-0.041 -0.35485,1.71974 1.06241,-1.54239 0.47085,0.11093 -0.59557,1.6645 0.0463,-1.77635 -0.47894,-0.0883 -0.5217,1.67668 1.20848,-1.43083 0.45771,0.15654 -0.75585,1.59811 0.22019,-1.76325 -0.46797,-0.13484 -0.68353,1.61746 1.34291,-1.30549 0.44016,0.20065 -0.90885,1.51633 0.39196,-1.73318 -0.4525,-0.18007 -0.83878,1.54268 1.4644,-1.16757 0.41838,0.24283 -1.05311,1.41994 0.55995,-1.68641 -0.43267,-0.22355 -0.98595,1.45304 1.57179,-1.01842 0.39255,0.28267 -1.18721,1.30988 0.72255,-1.62341 -0.40867,-0.26489 -1.12363,1.3494 1.66404,-0.85945 0.36296,0.31979 -1.30989,1.18721 0.87819,-1.54477 -0.38075,-0.30367 -1.25047,1.23277 1.74028,-0.69221 0.32987,0.35382 -1.41994,1.0531 1.02538,-1.45125 -0.34914,-0.33952 -1.36529,1.10426 1.79974,-0.5183 0.2936,0.38445 -1.51633,0.90885 1.16269,-1.34376 -0.31419,-0.37211 -1.46695,0.96512 1.84188,-0.3394 0.25451,0.41137 -1.59812,0.75585 1.2888,-1.22332 -0.27621,-0.40111 -1.55448,0.81669 1.86628,-0.15723 0.21296,0.43434 -1.6645,0.59557 1.40251,-1.09111 -0.23555,-0.42625 -1.62705,0.66039 1.8727,0.0264 0.16936,0.45312 -1.71487,0.42955 1.50269,-0.94839 -0.19264,-0.44729 -1.68395,0.49773 1.86108,0.20988 0.12413,0.46754 -1.74871,0.25939 1.58842,-0.79654 -0.14787,-0.46402 -1.72463,0.33028 1.83155,0.39129 0.0777,0.47745 -1.76571,0.0867 1.65885,-0.637 -0.10168,-0.47627 -1.74869,0.15964 1.78438,0.56893 0.0305,0.48277 -1.76572,-0.0868 1.71329,-0.47134 -0.0545,-0.48395 -1.75592,-0.0125 1.72003,0.74109 -0.0169,0.48344 -1.74871,-0.2594 1.75124,-0.30114 -0.007,-0.48696 -1.74624,-0.18458 1.6391,0.90611 -0.0642,0.47945 -1.71486,-0.42955 1.77233,-0.12804 0.041,-0.48528 -1.71974,-0.35485 1.54239,1.06241 -0.11092,0.47084 -1.66451,-0.59557 1.77634,0.0463 0.0883,-0.47893 -1.67667,-0.5217 1.43083,1.20848 -0.15654,0.45771 -1.59811,-0.75585 1.76325,0.22018 0.13485,-0.46797 -1.61747,-0.68353 1.30549,1.3429 -0.20065,0.44016 -1.51633,-0.90885 1.73317,0.39195 0.18006,-0.4525 -1.54268,-0.83878 1.16758,1.4644 -0.24283,0.41837 -1.41994,-1.0531 1.68642,0.55995 0.22355,-0.43267 -1.45303,-0.98595 1.01842,1.57179 -0.28266,0.39256 -1.30989,-1.18721 1.62341,0.72255 0.26488,-0.40868 -1.3494,-1.12362 0.85945,1.66405 -0.31978,0.36297 -1.18721,-1.30989 1.54477,0.87819 0.30366,-0.38075 -1.23277,-1.25048 0.69221,1.74027 -0.35382,0.32987 -1.0531,-1.41994 1.45126,1.02538 0.33952,-0.34915 -1.10426,-1.36528 0.5183,1.79975 -0.38444,0.29361 -0.90886,-1.51633 1.34376,1.16268 0.37211,-0.31419 -0.96513,-1.46695 0.33939,1.84188 -0.41138,0.2545 -0.75585,-1.59811 1.22333,1.2888 0.40111,-0.2762 -0.81669,-1.55448 0.15723,1.86628 -0.43434,0.21296 -0.59556,-1.6645 1.09112,1.4025 0.42626,-0.23556 -0.66039,-1.62705 -0.0265,1.8727 -0.45312,0.16936 -0.42955,-1.71486 0.94839,1.5027 0.44729,-0.19264 -0.49774,-1.68394 -0.20989,1.86109 -0.46754,0.12413 -0.2594,-1.74871 0.79653,1.58842 0.46401,-0.14787 -0.33028,-1.72462 -0.39129,1.83156 -0.47745,0.0777 -0.0867,-1.76572 0.637,1.65884 0.47628,-0.10168 -0.15965,-1.74869 -0.56894,1.78438 -0.48277,0.0305 0.0867,-1.76571 0.47134,1.7133 0.48394,-0.0545 0.0125,-1.75592 -0.74109,1.72002 -0.48344,-0.0169 0.2594,-1.7487 0.30114,1.75125 0.48697,-0.007 0.18457,-1.74624 -0.90612,1.6391 -0.47946,-0.0642 0.42955,-1.71486 0.12804,1.77233 0.48529,0.041 0.35484,-1.71974 -1.06242,1.54239 -0.47085,-0.11093 0.59557,-1.6645 -0.0463,1.77635 0.47893,0.0883 0.5217,-1.67668 -1.20848,1.43083 -0.4577,-0.15654 0.75585,-1.59811 -0.22019,1.76325 0.46796,0.13484 0.68354,-1.61746 -1.3429,1.30549 -0.44016,-0.20065 0.90886,-1.51633 -0.39195,1.73318 0.4525,0.18007 0.83878,-1.54268 -1.4644,1.16757 -0.41837,-0.24283 1.0531,-1.41994 -0.55995,1.68641 0.43267,0.22355 0.98595,-1.45304 -1.57179,1.01842 -0.39256,-0.28267 1.18721,-1.30988 -0.72255,1.62341 0.40868,0.26489 1.12362,-1.3494 -1.66405,0.85945 -0.36296,-0.31979 1.30988,-1.18721 -0.8782,1.54477 0.38074,0.30367 1.25048,-1.23277 -1.74027,0.69221 -0.32987,-0.35382 1.41995,-1.0531 -1.02538,1.45125 0.34915,0.33952 1.36529,-1.10426 -1.79974,0.5183 -0.2936,-0.38445 1.51633,-0.90885 -1.16269,1.34376 0.31419,0.37211 1.46695,-0.96512 -1.84188,0.3394 -0.25451,-0.41137 1.59811,-0.75585 -1.2888,1.22332 0.2762,0.40111 1.55449,-0.81669 -1.86627,0.15723 -0.21296,-0.43434 1.66451,-0.59557 -1.4025,1.09111 0.23556,0.42625 1.62705,-0.66039 -1.8727,-0.0264 -0.16936,-0.45312 1.71486,-0.42955 -1.5027,0.94839 0.19264,0.44729 1.68395,-0.49773 -1.86109,-0.20988 -0.12413,-0.46754 1.74871,-0.25939 -1.58842,0.79654 0.14787,0.46402 1.72462,-0.33028 -1.83155,-0.39129 -0.0777,-0.47745 1.76571,-0.0867 -1.65885,0.637 0.10167,0.47627 z"
       inkscape:transform-center-x="1.7500918e-06"
       inkscape:transform-center-y="-1.2879197e-06" />
    <text
       xml:space="preserve"
       style="font-weight:600;font-size:4.23333px;font-family:'American Typewriter';-inkscape-font-specification:'American Typewriter Semi-Bold';opacity:0;fill:#ffffff;fill-opacity:1;stroke:#000000;stroke-width:0.161;stroke-dasharray:0.161, 0.161;stroke-dashoffset:0.161"
       x="147.08319"
       y="102.69321"
       id="text1059"><tspan
         sodipodi:role="line"
         id="tspan1057"
         style="stroke-width:0.161"
         x="147.08319"
         y="102.69321" /></text>
    <text
       xml:space="preserve"
       style="font-weight:600;font-size:4.23333px;font-family:'American Typewriter';-inkscape-font-specification:'American Typewriter Semi-Bold';opacity:0.36;fill:#8e8e8e;fill-opacity:1;stroke:#ffffff;stroke-width:0;stroke-dasharray:none;stroke-dashoffset:0;stroke-opacity:1"
       x="146.78873"
       y="102.10429"
       id="text1063"><tspan
         sodipodi:role="line"
         id="tspan1061"
         style="fill:#8e8e8e;fill-opacity:1;stroke:#ffffff;stroke-width:0;stroke-dasharray:none;stroke-dashoffset:0;stroke-opacity:1"
         x="146.78873"
         y="102.10429" /></text>
    <text
       xml:space="preserve"
       style="font-weight:600;font-size:3.52778px;font-family:'American Typewriter';-inkscape-font-specification:'American Typewriter Semi-Bold';opacity:0.36;fill:#292929;fill-opacity:1;stroke:#ffffff;stroke-width:0;stroke-dasharray:none;stroke-dashoffset:0;stroke-opacity:1"
       x="146.71512"
       y="102.03068"
       id="text4497"><tspan
         sodipodi:role="line"
         id="tspan4495"
         style="font-size:3.52778px;fill:#292929;fill-opacity:1;stroke-width:0"
         x="146.71512"
         y="102.03068">&lt;&lt;  #  &gt;&gt;</tspan></text>
    <text
       xml:space="preserve"
       style="font-weight:600;font-size:3.52777px;font-family:'American Typewriter';-inkscape-font-specification:'American Typewriter Semi-Bold';opacity:0.36;fill:#292929;fill-opacity:1;stroke:#ffffff;stroke-width:0;stroke-dasharray:none;stroke-dashoffset:0;stroke-opacity:1"
       x="101.28808"
       y="16.085056"
       id="text7255"><tspan
         sodipodi:role="line"
         id="tspan7253"
         style="stroke-width:0"
         x="101.28808"
         y="16.085056" /></text>
    <text
       xml:space="preserve"
       style="font-weight:600;font-size:3.22888px;font-family:'American Typewriter';-inkscape-font-specification:'American Typewriter Semi-Bold';opacity:0.392727;fill:#000000;fill-opacity:1;stroke:#ffffff;stroke-width:0;stroke-dasharray:none;stroke-dashoffset:0;stroke-opacity:1"
       x="11.337012"
       y="-95.859077"
       id="text9490"
       transform="matrix(-0.0013514,0.95742782,-1.0444634,-0.0012388,0,0)"
       inkscape:transform-center-x="-0.054222486"
       inkscape:transform-center-y="0.27337787"><tspan
         sodipodi:role="line"
         id="tspan9488"
         style="stroke-width:0"
         x="11.337012"
         y="-95.859077">((&gt;</tspan></text>
    <rect
       style="opacity:0.218182;fill:#000000;fill-opacity:1;stroke:#ffffff;stroke-width:0;stroke-dasharray:none;stroke-dashoffset:0;stroke-opacity:1"
       id="rect9594"
       width="6.6313663"
       height="3.1240733"
       x="103.78622"
       y="11.681448" />
    <rect
       style="opacity:0.392727;fill:#000000;fill-opacity:1;stroke:#ffffff;stroke-width:0;stroke-dasharray:none;stroke-dashoffset:0;stroke-opacity:1"
       id="rect9648"
       width="5.0422187"
       height="2.7715678"
       x="103.92928"
       y="11.845759"
       ry="0" />
    <text
       xml:space="preserve"
       style="font-weight:600;font-size:3.34716px;font-family:'American Typewriter';-inkscape-font-specification:'American Typewriter Semi-Bold';opacity:0.392727;fill:#000000;fill-opacity:1;stroke:#ffffff;stroke-width:0;stroke-dasharray:none;stroke-dashoffset:0;stroke-opacity:1"
       x="122.97578"
       y="13.125957"
       id="text9652"
       transform="scale(0.90438285,1.1057264)"><tspan
         sodipodi:role="line"
         id="tspan9650"
         style="font-size:3.34716px;stroke-width:0"
         x="122.97578"
         y="13.125957">78%</tspan></text>
    <rect
       style="opacity:0.392727;fill:#000000;fill-opacity:1;stroke:#ffffff;stroke-width:0;stroke-dasharray:none;stroke-dashoffset:0;stroke-opacity:1"
       id="rect9654"
       width="18.199671"
       height="0.79877126"
       x="99.239899"
       y="16.085348" />
    <rect
       style="opacity:0.392727;fill:#000000;fill-opacity:1;stroke:#ffffff;stroke-width:0;stroke-dasharray:none;stroke-dashoffset:0;stroke-opacity:1"
       id="rect9658"
       width="8.7004175"
       height="8.7004175"
       x="101.89156"
       y="20.881002" />
    <rect
       style="opacity:0.392727;fill:#000000;fill-opacity:1;stroke:#ffffff;stroke-width:0;stroke-dasharray:none;stroke-dashoffset:0;stroke-opacity:1"
       id="rect9658-1"
       width="8.7004175"
       height="8.7004175"
       x="113.97548"
       y="20.939169" />
    <rect
       style="opacity:0.392727;fill:#000000;fill-opacity:1;stroke:#ffffff;stroke-width:0;stroke-dasharray:none;stroke-dashoffset:0;stroke-opacity:1"
       id="rect9658-8"
       width="8.7004175"
       height="8.7004175"
       x="124.80267"
       y="20.832262" />
    <rect
       style="opacity:0.392727;fill:#000000;fill-opacity:1;stroke:#ffffff;stroke-width:0;stroke-dasharray:none;stroke-dashoffset:0;stroke-opacity:1"
       id="rect9658-7"
       width="8.7004175"
       height="8.7004175"
       x="135.8232"
       y="20.973324" />
    <rect
       style="opacity:0.392727;fill:#000000;fill-opacity:1;stroke:#ffffff;stroke-width:0;stroke-dasharray:none;stroke-dashoffset:0;stroke-opacity:1"
       id="rect9658-87"
       width="8.7004175"
       height="8.7004175"
       x="147.03706"
       y="20.252235" />
    <rect
       style="opacity:0.392727;fill:#000000;fill-opacity:1;stroke:#ffffff;stroke-width:0;stroke-dasharray:none;stroke-dashoffset:0;stroke-opacity:1"
       id="rect9658-74"
       width="8.7004175"
       height="8.7004175"
       x="158.02852"
       y="20.483273" />
    <rect
       style="opacity:0.392727;fill:#000000;fill-opacity:1;stroke:#ffffff;stroke-width:0;stroke-dasharray:none;stroke-dashoffset:0;stroke-opacity:1"
       id="rect9658-2"
       width="8.7004175"
       height="8.7004175"
       x="101.99684"
       y="31.834755" />
    <rect
       style="opacity:0.392727;fill:#000000;fill-opacity:1;stroke:#ffffff;stroke-width:0;stroke-dasharray:none;stroke-dashoffset:0;stroke-opacity:1"
       id="rect9658-0"
       width="8.7004175"
       height="8.7004175"
       x="114.12089"
       y="31.998205" />
    <rect
       style="opacity:0.392727;fill:#000000;fill-opacity:1;stroke:#ffffff;stroke-width:0;stroke-dasharray:none;stroke-dashoffset:0;stroke-opacity:1"
       id="rect9658-748"
       width="8.7004175"
       height="8.7004175"
       x="126.67777"
       y="32.488495" />
    <rect
       style="opacity:0.392727;fill:#000000;fill-opacity:1;stroke:#ffffff;stroke-width:0;stroke-dasharray:none;stroke-dashoffset:0;stroke-opacity:1"
       id="rect9658-5"
       width="2.384414"
       height="2.2910662"
       x="127.07259"
       y="33.01693" />
    <rect
       style="opacity:0.392727;fill:#000000;fill-opacity:1;stroke:#ffffff;stroke-width:0;stroke-dasharray:none;stroke-dashoffset:0;stroke-opacity:1"
       id="rect9658-5-0"
       width="2.384414"
       height="2.2910662"
       x="129.82611"
       y="33.01693" />
    <rect
       style="opacity:0.392727;fill:#000000;fill-opacity:1;stroke:#ffffff;stroke-width:0;stroke-dasharray:none;stroke-dashoffset:0;stroke-opacity:1"
       id="rect9658-5-6"
       width="2.384414"
       height="2.2910662"
       x="132.47075"
       y="33.01693" />
    <rect
       style="opacity:0.392727;fill:#000000;fill-opacity:1;stroke:#ffffff;stroke-width:0;stroke-dasharray:none;stroke-dashoffset:0;stroke-opacity:1"
       id="rect9658-5-2"
       width="2.384414"
       height="2.2910662"
       x="127.10742"
       y="35.699989" />
    <rect
       style="opacity:0.392727;fill:#000000;fill-opacity:1;stroke:#ffffff;stroke-width:0;stroke-dasharray:none;stroke-dashoffset:0;stroke-opacity:1"
       id="rect9658-5-0-2"
       width="2.384414"
       height="2.2910662"
       x="129.86093"
       y="35.699989" />
    <rect
       style="opacity:0.392727;fill:#000000;fill-opacity:1;stroke:#ffffff;stroke-width:0;stroke-dasharray:none;stroke-dashoffset:0;stroke-opacity:1"
       id="rect9658-5-6-5"
       width="2.384414"
       height="2.2910662"
       x="132.50557"
       y="35.699989" />
    <rect
       style="opacity:0.392727;fill:#000000;fill-opacity:1;stroke:#ffffff;stroke-width:0;stroke-dasharray:none;stroke-dashoffset:0;stroke-opacity:1"
       id="rect9658-5-22"
       width="2.384414"
       height="2.2910662"
       x="127.08846"
       y="38.270432" />
    <rect
       style="opacity:0.392727;fill:#000000;fill-opacity:1;stroke:#ffffff;stroke-width:0;stroke-dasharray:none;stroke-dashoffset:0;stroke-opacity:1"
       id="rect9658-5-0-7"
       width="2.384414"
       height="2.2910662"
       x="129.84198"
       y="38.270432" />
    <rect
       style="opacity:0.392727;fill:#000000;fill-opacity:1;stroke:#ffffff;stroke-width:0;stroke-dasharray:none;stroke-dashoffset:0;stroke-opacity:1"
       id="rect9658-5-6-1"
       width="2.384414"
       height="2.2910662"
       x="132.48662"
       y="38.270432" />
    <text
       xml:space="preserve"
       style="font-weight:600;font-size:1.41111px;font-family:'American Typewriter';-inkscape-font-specification:'American Typewriter Semi-Bold';opacity:0.392727;fill:#000000;stroke:#ffffff;stroke-width:0;stroke-dasharray:none"
       x="103.54452"
       y="31.336742"
       id="text1002"><tspan
         sodipodi:role="line"
         style="stroke-width:0"
         x="103.54452"
         y="31.336742"
         id="tspan1004">APP</tspan></text>
    <text
       xml:space="preserve"
       style="font-weight:600;font-size:1.41111px;font-family:'American Typewriter';-inkscape-font-specification:'American Typewriter Semi-Bold';opacity:0.392727;fill:#000000;stroke:#ffffff;stroke-width:0;stroke-dasharray:none"
       x="116.77009"
       y="31.365213"
       id="text1002-0"><tspan
         sodipodi:role="line"
         style="stroke-width:0"
         x="116.77009"
         y="31.365213"
         id="tspan1004-5">APP</tspan></text>
    <text
       xml:space="preserve"
       style="font-weight:600;font-size:1.41111px;font-family:'American Typewriter';-inkscape-font-specification:'American Typewriter Semi-Bold';opacity:0.392727;fill:#000000;stroke:#ffffff;stroke-width:0;stroke-dasharray:none"
       x="127.78389"
       y="31.023483"
       id="text1002-2"><tspan
         sodipodi:role="line"
         style="stroke-width:0"
         x="127.78389"
         y="31.023483"
         id="tspan1004-2">APP</tspan></text>
    <text
       xml:space="preserve"
       style="font-weight:600;font-size:1.41111px;font-family:'American Typewriter';-inkscape-font-specification:'American Typewriter Semi-Bold';opacity:0.392727;fill:#000000;stroke:#ffffff;stroke-width:0;stroke-dasharray:none"
       x="138.81175"
       y="31.145777"
       id="text1002-7"><tspan
         sodipodi:role="line"
         style="stroke-width:0"
         x="138.81175"
         y="31.145777"
         id="tspan1004-3">APP</tspan></text>
    <text
       xml:space="preserve"
       style="font-weight:600;font-size:1.41111px;font-family:'American Typewriter';-inkscape-font-specification:'American Typewriter Semi-Bold';opacity:0.392727;fill:#000000;stroke:#ffffff;stroke-width:0;stroke-dasharray:none"
       x="149.84966"
       y="30.989309"
       id="text1002-79"><tspan
         sodipodi:role="line"
         style="stroke-width:0"
         x="149.84966"
         y="30.989309"
         id="tspan1004-0">APP</tspan></text>
    <text
       xml:space="preserve"
       style="font-weight:600;font-size:1.41111px;font-family:'American Typewriter';-inkscape-font-specification:'American Typewriter Semi-Bold';opacity:0.392727;fill:#000000;stroke:#ffffff;stroke-width:0;stroke-dasharray:none"
       x="160.9901"
       y="31.194347"
       id="text1002-23"><tspan
         sodipodi:role="line"
         style="stroke-width:0"
         x="160.9901"
         y="31.194347"
         id="tspan1004-9">APP</tspan></text>
    <text
       xml:space="preserve"
       style="font-weight:600;font-size:1.41111px;font-family:'American Typewriter';-inkscape-font-specification:'American Typewriter Semi-Bold';opacity:0.392727;fill:#000000;stroke:#ffffff;stroke-width:0;stroke-dasharray:none"
       x="104.43359"
       y="42.129742"
       id="text1002-9"><tspan
         sodipodi:role="line"
         style="stroke-width:0"
         x="104.43359"
         y="42.129742"
         id="tspan1004-7">APP</tspan></text>
    <text
       xml:space="preserve"
       style="font-weight:600;font-size:1.41111px;font-family:'American Typewriter';-inkscape-font-specification:'American Typewriter Semi-Bold';opacity:0.392727;fill:#000000;stroke:#ffffff;stroke-width:0;stroke-dasharray:none"
       x="116.80426"
       y="42.368954"
       id="text1002-03"><tspan
         sodipodi:role="line"
         style="stroke-width:0"
         x="116.80426"
         y="42.368954"
         id="tspan1004-98">APP</tspan></text>
    <text
       xml:space="preserve"
       style="font-weight:600;font-size:1.41111px;font-family:'American Typewriter';-inkscape-font-specification:'American Typewriter Semi-Bold';opacity:0.392727;fill:#000000;stroke:#ffffff;stroke-width:0;stroke-dasharray:none"
       x="126.13351"
       y="42.915726"
       id="text1002-6"><tspan
         sodipodi:role="line"
         style="stroke-width:0"
         x="126.13351"
         y="42.915726"
         id="tspan1004-57">Untitled Folder</tspan></text>
    <text
       xml:space="preserve"
       style="font-weight:600;font-size:2.01423px;font-family:'American Typewriter';-inkscape-font-specification:'American Typewriter Semi-Bold';opacity:0.392727;fill:#000000;stroke:#ffffff;stroke-width:0;stroke-dasharray:none"
       x="228.84709"
       y="158.72823"
       id="text3523"
       transform="scale(0.91955916,1.0874776)"><tspan
         sodipodi:role="line"
         id="tspan3521"
         style="stroke-width:0"
         x="228.84709"
         y="158.72823">CPU：Qualcomm Snapdragon 888</tspan><tspan
         sodipodi:role="line"
         style="stroke-width:0"
         x="228.84709"
         y="161.28062"
         id="tspan3525"></tspan><tspan
         sodipodi:role="line"
         style="stroke-width:0"
         x="228.84709"
         y="163.79842"
         id="tspan3527">GPU：Adreno 660或类似的高性能GPU。</tspan><tspan
         sodipodi:role="line"
         style="stroke-width:0"
         x="228.84709"
         y="166.35081"
         id="tspan3529"></tspan><tspan
         sodipodi:role="line"
         style="stroke-width:0"
         x="228.84709"
         y="168.86859"
         id="tspan3531">内存：8GB或更高容量的RAM。</tspan><tspan
         sodipodi:role="line"
         style="stroke-width:0"
         x="228.84709"
         y="171.42099"
         id="tspan3533"></tspan><tspan
         sodipodi:role="line"
         style="stroke-width:0"
         x="228.84709"
         y="173.93878"
         id="tspan3535">存储：128GB MicroSD卡 +16GB内部系统储存</tspan><tspan
         sodipodi:role="line"
         style="stroke-width:0"
         x="228.84709"
         y="176.49118"
         id="tspan3537"></tspan><tspan
         sodipodi:role="line"
         style="stroke-width:0"
         x="228.84709"
         y="179.00897"
         id="tspan3539">屏幕：4.7英寸（750x1334px），刷新率为90Hz或更高。</tspan><tspan
         sodipodi:role="line"
         style="stroke-width:0"
         x="228.84709"
         y="181.56137"
         id="tspan3541"></tspan><tspan
         sodipodi:role="line"
         style="stroke-width:0"
         x="228.84709"
         y="184.07915"
         id="tspan3543">摄像头：5MP后置摄像头，前置摄像头为2MP像素。</tspan><tspan
         sodipodi:role="line"
         style="stroke-width:0"
         x="228.84709"
         y="186.63155"
         id="tspan3545"></tspan><tspan
         sodipodi:role="line"
         style="stroke-width:0"
         x="228.84709"
         y="189.14934"
         id="tspan3547">电池：4500mAh，支持快速充电技术</tspan></text>
  </g>
</svg>
